<?xml version='1.0' encoding='UTF-8'?>
<svg xmlns="http://www.w3.org/2000/svg" version="1.1" viewBox="133 125 988 988" width="988" height="988" role="img" aria-labelledby="snf-logo-title snf-logo-description">
  <title id="snf-logo-title">Slop Ninja — full logo</title>
  <desc id="snf-logo-description">Rebuilt as editable native SVG paths and smooth gradients from the approved Slop Ninja artwork. No embedded raster images, scripts, linked assets, or font dependencies. Exterior background is transparent; intentional black face and document areas are preserved. Primary colorway is intended for dark backgrounds.</desc>
  <defs>
    <linearGradient id="snf-upper-tie-gradient" gradientUnits="userSpaceOnUse" x1="462.169" y1="346.209" x2="281.304" y2="305.939">
      <stop offset="0.000" stop-color="#1c2023"/>
      <stop offset="0.100" stop-color="#1d2628"/>
      <stop offset="0.200" stop-color="#1f3732"/>
      <stop offset="0.300" stop-color="#1f4d40"/>
      <stop offset="0.400" stop-color="#1d644d"/>
      <stop offset="0.500" stop-color="#1c8260"/>
      <stop offset="0.600" stop-color="#1aab79"/>
      <stop offset="0.700" stop-color="#1cd595"/>
      <stop offset="0.800" stop-color="#23f2ad"/>
      <stop offset="0.900" stop-color="#2ffbbc"/>
      <stop offset="1.000" stop-color="#37f9bf"/>
    </linearGradient>
    <linearGradient id="snf-lower-tie-gradient" gradientUnits="userSpaceOnUse" x1="432.182" y1="427.130" x2="253.662" y2="411.650">
      <stop offset="0.000" stop-color="#1d2124"/>
      <stop offset="0.100" stop-color="#1c2526"/>
      <stop offset="0.200" stop-color="#1d3631"/>
      <stop offset="0.300" stop-color="#1c4d3f"/>
      <stop offset="0.400" stop-color="#1c6850"/>
      <stop offset="0.500" stop-color="#1b8763"/>
      <stop offset="0.600" stop-color="#19a676"/>
      <stop offset="0.700" stop-color="#19c78b"/>
      <stop offset="0.800" stop-color="#1be49e"/>
      <stop offset="0.900" stop-color="#24f6b2"/>
      <stop offset="1.000" stop-color="#2ef7b9"/>
    </linearGradient>
    <linearGradient id="snf-tie-fold-gradient" gradientUnits="userSpaceOnUse" x1="440.757" y1="396.329" x2="414.019" y2="382.774">
      <stop offset="0.000" stop-color="#182d29"/>
      <stop offset="0.100" stop-color="#182f2a"/>
      <stop offset="0.200" stop-color="#16322c"/>
      <stop offset="0.300" stop-color="#15352d"/>
      <stop offset="0.400" stop-color="#164135"/>
      <stop offset="0.500" stop-color="#184a3b"/>
      <stop offset="0.600" stop-color="#144637"/>
      <stop offset="0.700" stop-color="#0f4635"/>
      <stop offset="0.800" stop-color="#0e4f3b"/>
      <stop offset="0.900" stop-color="#0d4e39"/>
      <stop offset="1.000" stop-color="#0b4a37"/>
    </linearGradient>
    <linearGradient id="snf-upper-right-terminal-gradient" gradientUnits="userSpaceOnUse" x1="913.030" y1="393.000" x2="913.030" y2="543.000">
      <stop offset="0.000" stop-color="#32f8bd"/>
      <stop offset="0.100" stop-color="#2cf8bc"/>
      <stop offset="0.200" stop-color="#2cf9bc"/>
      <stop offset="0.300" stop-color="#29f9b7"/>
      <stop offset="0.400" stop-color="#23f1ab"/>
      <stop offset="0.500" stop-color="#1ce09a"/>
      <stop offset="0.600" stop-color="#1bce8e"/>
      <stop offset="0.700" stop-color="#18b47f"/>
      <stop offset="0.800" stop-color="#17926a"/>
      <stop offset="0.900" stop-color="#167254"/>
      <stop offset="1.000" stop-color="#146149"/>
    </linearGradient>
    <linearGradient id="snf-upper-left-terminal-gradient" gradientUnits="userSpaceOnUse" x1="368.719" y1="479.000" x2="368.719" y2="595.178">
      <stop offset="0.000" stop-color="#31f9bb"/>
      <stop offset="0.100" stop-color="#34fac0"/>
      <stop offset="0.200" stop-color="#32f8be"/>
      <stop offset="0.300" stop-color="#24f5b0"/>
      <stop offset="0.400" stop-color="#21e5a2"/>
      <stop offset="0.500" stop-color="#1acd90"/>
      <stop offset="0.600" stop-color="#19bb85"/>
      <stop offset="0.700" stop-color="#15a673"/>
      <stop offset="0.800" stop-color="#15845f"/>
      <stop offset="0.900" stop-color="#166a4e"/>
      <stop offset="1.000" stop-color="#155f48"/>
    </linearGradient>
    <linearGradient id="snf-lower-right-terminal-gradient" gradientUnits="userSpaceOnUse" x1="948.041" y1="486.000" x2="948.041" y2="614.000">
      <stop offset="0.000" stop-color="#31f8bc"/>
      <stop offset="0.100" stop-color="#2cf9ba"/>
      <stop offset="0.200" stop-color="#28f9b7"/>
      <stop offset="0.300" stop-color="#21f2ab"/>
      <stop offset="0.400" stop-color="#1cd393"/>
      <stop offset="0.500" stop-color="#18b17b"/>
      <stop offset="0.600" stop-color="#14986a"/>
      <stop offset="0.700" stop-color="#158e66"/>
      <stop offset="0.800" stop-color="#158862"/>
      <stop offset="0.900" stop-color="#148761"/>
      <stop offset="1.000" stop-color="#147e5b"/>
    </linearGradient>
    <linearGradient id="snf-lower-left-terminal-gradient" gradientUnits="userSpaceOnUse" x1="331.169" y1="543.000" x2="331.169" y2="656.000">
      <stop offset="0.000" stop-color="#34f7bb"/>
      <stop offset="0.100" stop-color="#33f8bd"/>
      <stop offset="0.200" stop-color="#2cf7b9"/>
      <stop offset="0.300" stop-color="#1edf9d"/>
      <stop offset="0.400" stop-color="#18bb81"/>
      <stop offset="0.500" stop-color="#149b6c"/>
      <stop offset="0.600" stop-color="#148962"/>
      <stop offset="0.700" stop-color="#167658"/>
      <stop offset="0.800" stop-color="#167155"/>
      <stop offset="0.900" stop-color="#14684f"/>
      <stop offset="1.000" stop-color="#14644a"/>
    </linearGradient>
    <clipPath id="snf-hood-clip">
      <path d="M506.942,630.767 C503.341,627.870 497.269,622.967 493.448,619.871 C472.502,602.900 437.466,562.692 419.075,534.518 C413.096,525.358 413.103,525.548 418.194,510.500 C425.481,488.967 436.526,457.769 441.157,445.641 C443.917,438.414 447.223,429.575 448.504,426.000 C449.785,422.425 452.926,413.875 455.483,407.000 C458.041,400.125 462.076,389.100 464.449,382.500 C476.635,348.615 495.684,302.104 506.951,278.725 L512.144,267.951 L523.322,260.013 C555.991,236.813 593.983,218.167 640.500,202.504 C668.175,193.185 668.617,193.188 689.000,202.837 C727.754,221.182 757.163,239.886 787.607,265.555 C792.190,269.420 806.978,309.628 819.556,352.426 C823.100,364.485 826.000,374.795 826.000,375.337 C826.000,375.879 819.902,369.968 812.448,362.201 C793.532,342.490 756.046,309.621 754.380,311.286 C754.075,311.592 756.065,315.590 758.804,320.171 C761.543,324.752 774.009,345.600 786.508,366.500 C813.411,411.488 839.862,453.389 840.804,452.510 C841.239,452.103 837.523,429.734 834.509,414.614 C830.740,395.715 831.423,396.368 841.703,421.500 C856.999,458.894 868.481,491.885 867.404,495.346 C864.578,504.424 840.528,540.129 821.159,564.000 C816.473,569.775 812.495,574.687 812.320,574.917 C812.144,575.146 811.799,575.132 811.553,574.887 C811.308,574.641 815.952,564.778 821.874,552.970 C836.150,524.503 848.032,494.608 846.277,491.569 C842.113,484.356 816.869,459.233 801.577,447.082 C768.799,421.038 710.508,389.616 658.961,370.204 C638.721,362.582 637.534,362.344 630.446,364.495 C609.690,370.796 569.765,389.226 546.889,403.067 C499.731,431.601 459.261,469.116 442.882,499.481 L438.768,507.108 L442.971,517.804 C457.006,553.519 482.469,596.402 506.777,625.263 C510.837,630.083 514.007,634.478 513.823,635.030 C513.639,635.582 510.543,633.663 506.942,630.767 Z M532.000,380.219 C546.568,369.202 564.006,357.538 580.000,348.111 C586.875,344.059 593.510,340.117 594.745,339.352 C595.979,338.587 597.599,336.507 598.344,334.730 C614.327,296.612 646.738,232.816 661.203,211.000 C664.302,206.325 666.412,202.346 665.892,202.157 C664.248,201.563 646.813,208.779 633.445,215.586 C573.063,246.333 536.237,277.370 509.558,320.000 C503.559,329.586 486.499,361.928 484.065,368.329 C482.462,372.544 483.720,371.478 487.696,365.250 C497.529,349.847 514.901,327.459 528.132,313.140 C538.947,301.435 556.281,285.343 556.705,286.614 C556.880,287.139 554.064,292.053 550.448,297.534 C534.878,321.137 517.479,361.310 506.315,399.434 C505.950,400.680 508.373,399.153 513.124,395.142 C517.181,391.717 525.675,385.002 532.000,380.219 Z" fill="#fff" fill-rule="evenodd"/>
    </clipPath>
    <linearGradient id="snf-hood-face-gradient" gradientUnits="userSpaceOnUse" x1="434.625" y1="366.804" x2="819.682" y2="320.597">
      <stop offset="0.000" stop-color="#1fd8a2"/>
      <stop offset="0.071" stop-color="#1c8361"/>
      <stop offset="0.143" stop-color="#1b6a4f"/>
      <stop offset="0.214" stop-color="#1b5543"/>
      <stop offset="0.286" stop-color="#1c2c2a"/>
      <stop offset="0.357" stop-color="#1c2022"/>
      <stop offset="0.429" stop-color="#1c1e21"/>
      <stop offset="0.500" stop-color="#1c1e21"/>
      <stop offset="0.571" stop-color="#1c1e21"/>
      <stop offset="0.643" stop-color="#1b1e21"/>
      <stop offset="0.714" stop-color="#1b1e21"/>
      <stop offset="0.786" stop-color="#1c1e21"/>
      <stop offset="0.857" stop-color="#1c1f22"/>
      <stop offset="0.929" stop-color="#1c1f22"/>
      <stop offset="1.000" stop-color="#1d2023"/>
    </linearGradient>
    <linearGradient id="snf-hood-mint-rim-gradient" gradientUnits="userSpaceOnUse" x1="484.989" y1="214.748" x2="484.989" y2="622.000">
      <stop offset="0.000" stop-color="#3efcc6"/>
      <stop offset="0.071" stop-color="#3cfbc4"/>
      <stop offset="0.143" stop-color="#38fbc1"/>
      <stop offset="0.214" stop-color="#37fbc2"/>
      <stop offset="0.286" stop-color="#37fbc3"/>
      <stop offset="0.357" stop-color="#36fbc4"/>
      <stop offset="0.429" stop-color="#32fbc1"/>
      <stop offset="0.500" stop-color="#2ffbc1"/>
      <stop offset="0.571" stop-color="#2dfbc0"/>
      <stop offset="0.643" stop-color="#30fcc1"/>
      <stop offset="0.714" stop-color="#36fcc1"/>
      <stop offset="0.786" stop-color="#35fbc0"/>
      <stop offset="0.857" stop-color="#31fabe"/>
      <stop offset="0.929" stop-color="#25e0a6"/>
      <stop offset="1.000" stop-color="#17a371"/>
    </linearGradient>
    <linearGradient id="snf-hood-crown-rim-gradient" gradientUnits="userSpaceOnUse" x1="698.529" y1="200.573" x2="827.427" y2="329.471">
      <stop offset="0.000" stop-color="#4f555a"/>
      <stop offset="0.100" stop-color="#4e5358"/>
      <stop offset="0.200" stop-color="#4d5256"/>
      <stop offset="0.300" stop-color="#4e5257"/>
      <stop offset="0.400" stop-color="#4e5257"/>
      <stop offset="0.500" stop-color="#4e5257"/>
      <stop offset="0.600" stop-color="#4e5357"/>
      <stop offset="0.700" stop-color="#4f5358"/>
      <stop offset="0.800" stop-color="#4f5459"/>
      <stop offset="0.900" stop-color="#50555a"/>
      <stop offset="1.000" stop-color="#51565c"/>
    </linearGradient>
    <linearGradient id="snf-hood-right-rim-gradient" gradientUnits="userSpaceOnUse" x1="846.526" y1="423.000" x2="846.526" y2="562.904">
      <stop offset="0.000" stop-color="#545a61"/>
      <stop offset="0.100" stop-color="#545a5f"/>
      <stop offset="0.200" stop-color="#50565b"/>
      <stop offset="0.300" stop-color="#52575c"/>
      <stop offset="0.400" stop-color="#51565b"/>
      <stop offset="0.500" stop-color="#51565b"/>
      <stop offset="0.600" stop-color="#51575b"/>
      <stop offset="0.700" stop-color="#50565a"/>
      <stop offset="0.800" stop-color="#4e5458"/>
      <stop offset="0.900" stop-color="#4e5357"/>
      <stop offset="1.000" stop-color="#4d5256"/>
    </linearGradient>
    <linearGradient id="snf-brow-gradient" gradientUnits="userSpaceOnUse" x1="525.016" y1="460.486" x2="761.000" y2="460.486">
      <stop offset="0.000" stop-color="#213936"/>
      <stop offset="0.100" stop-color="#222c2e"/>
      <stop offset="0.200" stop-color="#222a2c"/>
      <stop offset="0.300" stop-color="#283434"/>
      <stop offset="0.400" stop-color="#4a5f5d"/>
      <stop offset="0.500" stop-color="#465353"/>
      <stop offset="0.600" stop-color="#3a4043"/>
      <stop offset="0.700" stop-color="#262a2d"/>
      <stop offset="0.800" stop-color="#1d2023"/>
      <stop offset="0.900" stop-color="#1c1f22"/>
      <stop offset="1.000" stop-color="#1d2023"/>
    </linearGradient>
    <linearGradient id="snf-brow-facet-gradient" gradientUnits="userSpaceOnUse" x1="610.146" y1="473.991" x2="691.000" y2="473.991">
      <stop offset="0.000" stop-color="#476161"/>
      <stop offset="0.100" stop-color="#4f6464"/>
      <stop offset="0.200" stop-color="#506161"/>
      <stop offset="0.300" stop-color="#495a59"/>
      <stop offset="0.400" stop-color="#475453"/>
      <stop offset="0.500" stop-color="#444d4e"/>
      <stop offset="0.600" stop-color="#3f4648"/>
      <stop offset="0.700" stop-color="#393f42"/>
      <stop offset="0.800" stop-color="#34393c"/>
      <stop offset="0.900" stop-color="#303437"/>
      <stop offset="1.000" stop-color="#292c2f"/>
    </linearGradient>
    <clipPath id="snf-face-clip">
      <path d="M619.482,695.354 C577.088,667.183 538.066,623.463 519.257,583.061 C507.241,557.250 492.579,510.000 496.586,510.000 C496.908,510.000 501.070,513.431 505.836,517.625 C526.499,535.809 547.217,546.652 565.078,548.631 C574.909,549.720 594.412,546.393 614.442,540.211 C637.064,533.228 642.862,532.905 659.177,537.723 C687.914,546.209 708.479,547.895 726.000,543.199 C738.723,539.790 754.740,531.493 767.856,521.517 C774.102,516.766 779.422,513.088 779.677,513.344 C780.983,514.650 767.273,558.537 761.431,571.750 L759.110,577.000 L750.555,577.000 C744.376,577.000 742.001,576.653 742.003,575.750 C742.004,575.062 744.254,569.002 747.003,562.282 C749.751,555.562 752.000,549.594 752.000,549.019 C752.000,548.400 750.468,548.650 748.250,549.631 C719.656,562.273 702.770,562.934 663.209,552.958 C654.576,550.781 645.164,549.000 642.293,549.000 L637.074,549.000 L633.120,561.367 C625.126,586.372 622.034,605.894 621.292,636.048 C620.781,656.808 622.275,683.442 624.614,695.250 C625.292,698.672 624.499,698.688 619.482,695.354 Z" fill="#fff" fill-rule="evenodd"/>
    </clipPath>
    <linearGradient id="snf-mask-charcoal-gradient" gradientUnits="userSpaceOnUse" x1="542.000" y1="606.453" x2="766.000" y2="606.453">
      <stop offset="0.000" stop-color="#1d2023"/>
      <stop offset="0.100" stop-color="#1b1e21"/>
      <stop offset="0.200" stop-color="#1c1e21"/>
      <stop offset="0.300" stop-color="#1c1f22"/>
      <stop offset="0.400" stop-color="#1d2023"/>
      <stop offset="0.500" stop-color="#1d2023"/>
      <stop offset="0.600" stop-color="#1d2023"/>
      <stop offset="0.700" stop-color="#1d2023"/>
      <stop offset="0.800" stop-color="#1c1f22"/>
      <stop offset="0.900" stop-color="#1d2024"/>
      <stop offset="1.000" stop-color="#1d2024"/>
    </linearGradient>
    <linearGradient id="snf-mask-fold-gradient" gradientUnits="userSpaceOnUse" x1="512.081" y1="578.982" x2="611.050" y2="628.467">
      <stop offset="0.000" stop-color="#1f715b"/>
      <stop offset="0.100" stop-color="#1e755a"/>
      <stop offset="0.200" stop-color="#1c6950"/>
      <stop offset="0.300" stop-color="#1d664f"/>
      <stop offset="0.400" stop-color="#1c5d49"/>
      <stop offset="0.500" stop-color="#1e5946"/>
      <stop offset="0.600" stop-color="#205545"/>
      <stop offset="0.700" stop-color="#215243"/>
      <stop offset="0.800" stop-color="#214e41"/>
      <stop offset="0.900" stop-color="#1f443b"/>
      <stop offset="1.000" stop-color="#1f453e"/>
    </linearGradient>
    <linearGradient id="snf-mask-rim-gradient" gradientUnits="userSpaceOnUse" x1="500.000" y1="550.288" x2="774.000" y2="550.288">
      <stop offset="0.000" stop-color="#30fbbe"/>
      <stop offset="0.071" stop-color="#2bfaba"/>
      <stop offset="0.143" stop-color="#21e5a1"/>
      <stop offset="0.214" stop-color="#1bab76"/>
      <stop offset="0.286" stop-color="#1b6f53"/>
      <stop offset="0.357" stop-color="#1d5040"/>
      <stop offset="0.429" stop-color="#1e3d34"/>
      <stop offset="0.500" stop-color="#1e2e2c"/>
      <stop offset="0.571" stop-color="#1d2325"/>
      <stop offset="0.643" stop-color="#1e2124"/>
      <stop offset="0.714" stop-color="#1d2023"/>
      <stop offset="0.786" stop-color="#1d2023"/>
      <stop offset="0.857" stop-color="#1d2023"/>
      <stop offset="0.929" stop-color="#1d2023"/>
      <stop offset="1.000" stop-color="#1d2124"/>
    </linearGradient>
    <linearGradient id="snf-scanner-mint-gradient" gradientUnits="userSpaceOnUse" x1="509" y1="423" x2="624" y2="544">
      <stop offset="0" stop-color="#32FFD0"/>
      <stop offset="0.55" stop-color="#12F4B4"/>
      <stop offset="1" stop-color="#00EAB0"/>
    </linearGradient>
    <linearGradient id="snf-document-border-gradient" gradientUnits="userSpaceOnUse" x1="654.290" y1="672.352" x2="913.868" y2="620.436">
      <stop offset="0.000" stop-color="#17ac7a"/>
      <stop offset="0.083" stop-color="#18c589"/>
      <stop offset="0.167" stop-color="#1bc58a"/>
      <stop offset="0.250" stop-color="#20a478"/>
      <stop offset="0.333" stop-color="#25a176"/>
      <stop offset="0.417" stop-color="#29c08b"/>
      <stop offset="0.500" stop-color="#2ddda0"/>
      <stop offset="0.583" stop-color="#34f2b3"/>
      <stop offset="0.667" stop-color="#3ffac0"/>
      <stop offset="0.750" stop-color="#3dfbc1"/>
      <stop offset="0.833" stop-color="#3bfac1"/>
      <stop offset="0.917" stop-color="#37fac0"/>
      <stop offset="1.000" stop-color="#36fabf"/>
    </linearGradient>
    <clipPath id="snf-document-border-clip">
      <path d="M874.241,842.750 C874.895,839.643 882.843,799.827 897.521,726.130 C906.808,679.501 909.688,663.286 908.936,661.880 C907.990,660.112 906.344,660.000 881.388,660.000 L854.846,660.000 L851.923,657.077 C848.340,653.494 848.339,653.907 852.009,630.055 C853.654,619.359 855.000,609.859 855.000,608.943 C855.000,606.475 725.050,605.367 720.828,607.799 C717.237,609.869 717.048,610.296 708.615,635.500 C694.974,676.269 674.765,734.493 673.946,735.383 C673.336,736.046 663.527,731.513 661.197,729.491 C660.837,729.178 675.787,685.040 689.984,644.500 C695.570,628.550 701.100,612.680 702.272,609.233 C704.874,601.584 709.023,596.348 714.429,593.893 C718.266,592.150 722.614,592.043 790.168,592.022 C829.586,592.010 862.566,592.280 863.457,592.622 C865.401,593.368 922.228,653.690 923.861,656.740 C926.306,661.310 926.156,662.178 905.101,764.688 C897.178,803.259 898.556,799.014 885.438,825.293 C876.450,843.299 872.988,848.697 874.241,842.750 Z" fill="#fff" fill-rule="evenodd"/>
    </clipPath>
    <linearGradient id="snf-document-tail-shading" gradientUnits="userSpaceOnUse" x1="0" y1="710" x2="0" y2="846">
      <stop offset="0" stop-color="#000000" stop-opacity="0"/>
      <stop offset="0.2" stop-color="#000000" stop-opacity="0.01"/>
      <stop offset="0.45" stop-color="#000000" stop-opacity="0.16"/>
      <stop offset="0.72" stop-color="#000000" stop-opacity="0.42"/>
      <stop offset="1" stop-color="#000000" stop-opacity="0.76"/>
    </linearGradient>
    <linearGradient id="snf-text-line-1-gradient" gradientUnits="userSpaceOnUse" x1="730.718" y1="654.964" x2="810.000" y2="654.964">
      <stop offset="0.000" stop-color="#6f777b"/>
      <stop offset="0.100" stop-color="#6d7679"/>
      <stop offset="0.200" stop-color="#6b7879"/>
      <stop offset="0.300" stop-color="#69837c"/>
      <stop offset="0.400" stop-color="#62897d"/>
      <stop offset="0.500" stop-color="#5c9080"/>
      <stop offset="0.600" stop-color="#579480"/>
      <stop offset="0.700" stop-color="#509980"/>
      <stop offset="0.800" stop-color="#4a9f82"/>
      <stop offset="0.900" stop-color="#47a585"/>
      <stop offset="1.000" stop-color="#43ac88"/>
    </linearGradient>
    <linearGradient id="snf-text-line-2-gradient" gradientUnits="userSpaceOnUse" x1="722.000" y1="685.504" x2="845.000" y2="685.504">
      <stop offset="0.000" stop-color="#6e787b"/>
      <stop offset="0.100" stop-color="#6b7879"/>
      <stop offset="0.200" stop-color="#647e7a"/>
      <stop offset="0.300" stop-color="#5e887c"/>
      <stop offset="0.400" stop-color="#55927e"/>
      <stop offset="0.500" stop-color="#4c9c80"/>
      <stop offset="0.600" stop-color="#41a682"/>
      <stop offset="0.700" stop-color="#37b084"/>
      <stop offset="0.800" stop-color="#2db784"/>
      <stop offset="0.900" stop-color="#27be86"/>
      <stop offset="1.000" stop-color="#25c78b"/>
    </linearGradient>
    <linearGradient id="snf-text-line-3-gradient" gradientUnits="userSpaceOnUse" x1="715.000" y1="715.992" x2="820.698" y2="715.992">
      <stop offset="0.000" stop-color="#596869"/>
      <stop offset="0.100" stop-color="#566a69"/>
      <stop offset="0.200" stop-color="#51726b"/>
      <stop offset="0.300" stop-color="#4a7a6d"/>
      <stop offset="0.400" stop-color="#42836e"/>
      <stop offset="0.500" stop-color="#3b8b70"/>
      <stop offset="0.600" stop-color="#339473"/>
      <stop offset="0.700" stop-color="#2b9d75"/>
      <stop offset="0.800" stop-color="#27a578"/>
      <stop offset="0.900" stop-color="#22ad7b"/>
      <stop offset="1.000" stop-color="#20b780"/>
    </linearGradient>
    <linearGradient id="snf-text-line-4-gradient" gradientUnits="userSpaceOnUse" x1="708.000" y1="746.144" x2="801.000" y2="746.144">
      <stop offset="0.000" stop-color="#434f51"/>
      <stop offset="0.100" stop-color="#435555"/>
      <stop offset="0.200" stop-color="#42605a"/>
      <stop offset="0.300" stop-color="#3c695e"/>
      <stop offset="0.400" stop-color="#377361"/>
      <stop offset="0.500" stop-color="#327d65"/>
      <stop offset="0.600" stop-color="#2c8668"/>
      <stop offset="0.700" stop-color="#28906c"/>
      <stop offset="0.800" stop-color="#24966f"/>
      <stop offset="0.900" stop-color="#229c71"/>
      <stop offset="1.000" stop-color="#1fa375"/>
    </linearGradient>
    <linearGradient id="snf-refinement-spark-gradient" gradientUnits="userSpaceOnUse" x1="844.939" y1="708.000" x2="844.939" y2="769.860">
      <stop offset="0.000" stop-color="#21efb8"/>
      <stop offset="0.100" stop-color="#36f6c1"/>
      <stop offset="0.200" stop-color="#32f8bd"/>
      <stop offset="0.300" stop-color="#2df9ba"/>
      <stop offset="0.400" stop-color="#2ef9ba"/>
      <stop offset="0.500" stop-color="#2bfab9"/>
      <stop offset="0.600" stop-color="#2afaba"/>
      <stop offset="0.700" stop-color="#20f9b6"/>
      <stop offset="0.800" stop-color="#25f9ba"/>
      <stop offset="0.900" stop-color="#2cf7bd"/>
      <stop offset="1.000" stop-color="#1cf2bb"/>
    </linearGradient>
    <linearGradient id="snf-scarf-rear-gradient" gradientUnits="userSpaceOnUse" x1="359.773" y1="682.227" x2="514.533" y2="836.987">
      <stop offset="0.000" stop-color="#16d693"/>
      <stop offset="0.100" stop-color="#16c88b"/>
      <stop offset="0.200" stop-color="#14b17c"/>
      <stop offset="0.300" stop-color="#139e70"/>
      <stop offset="0.400" stop-color="#139065"/>
      <stop offset="0.500" stop-color="#13845d"/>
      <stop offset="0.600" stop-color="#157957"/>
      <stop offset="0.700" stop-color="#156d4f"/>
      <stop offset="0.800" stop-color="#16634a"/>
      <stop offset="0.900" stop-color="#185b44"/>
      <stop offset="1.000" stop-color="#15523d"/>
    </linearGradient>
    <clipPath id="snf-collar-clip">
      <path d="M638.500,839.997 C637.400,839.520 631.100,837.005 624.500,834.408 C539.057,800.787 445.243,738.095 408.751,690.231 L401.684,680.962 L402.873,671.284 C404.229,660.252 412.344,625.977 417.560,609.251 C420.122,601.036 421.686,597.596 423.359,596.500 C426.323,594.558 441.547,590.000 445.069,590.000 C448.773,590.000 449.583,592.602 446.468,594.498 C445.111,595.324 442.881,596.681 441.514,597.514 C440.147,598.347 438.295,600.147 437.399,601.514 C435.888,603.821 435.894,604.199 437.492,606.750 C440.912,612.209 455.988,624.051 480.134,640.244 C509.478,659.923 531.591,673.042 604.500,714.029 C611.650,718.048 622.675,724.338 629.000,728.007 C635.325,731.675 647.250,738.437 655.500,743.034 C696.126,765.668 729.901,788.137 756.000,809.891 C768.989,820.717 783.264,834.069 782.580,834.753 C782.331,835.003 777.260,832.300 771.313,828.747 C746.504,813.926 688.452,782.994 655.000,766.772 C648.675,763.705 633.825,756.490 622.000,750.738 C602.331,741.170 577.765,729.667 526.500,706.021 C494.345,691.189 489.586,689.081 489.178,689.489 C488.961,689.705 490.489,692.722 492.573,696.191 C523.211,747.209 564.867,789.374 621.500,826.694 C630.850,832.855 639.400,838.575 640.500,839.404 C642.691,841.055 641.650,841.364 638.500,839.997 Z" fill="#fff" fill-rule="evenodd"/>
    </clipPath>
    <linearGradient id="snf-collar-charcoal-gradient" gradientUnits="userSpaceOnUse" x1="455.777" y1="630.745" x2="706.255" y2="881.223">
      <stop offset="0.000" stop-color="#1a1d20"/>
      <stop offset="0.100" stop-color="#1b1d20"/>
      <stop offset="0.200" stop-color="#1b1e21"/>
      <stop offset="0.300" stop-color="#1c1f22"/>
      <stop offset="0.400" stop-color="#1d2023"/>
      <stop offset="0.500" stop-color="#202326"/>
      <stop offset="0.600" stop-color="#262a2d"/>
      <stop offset="0.700" stop-color="#32373a"/>
      <stop offset="0.800" stop-color="#3e4347"/>
      <stop offset="0.900" stop-color="#43484d"/>
      <stop offset="1.000" stop-color="#464b50"/>
    </linearGradient>
    <linearGradient id="snf-collar-mint-gradient" gradientUnits="userSpaceOnUse" x1="412.943" y1="603.841" x2="502.693" y2="783.341">
      <stop offset="0.000" stop-color="#39f9bf"/>
      <stop offset="0.071" stop-color="#33fabc"/>
      <stop offset="0.143" stop-color="#2af8b6"/>
      <stop offset="0.214" stop-color="#21f4af"/>
      <stop offset="0.286" stop-color="#1ae9a3"/>
      <stop offset="0.357" stop-color="#17d997"/>
      <stop offset="0.429" stop-color="#15c98b"/>
      <stop offset="0.500" stop-color="#14b77f"/>
      <stop offset="0.571" stop-color="#15a775"/>
      <stop offset="0.643" stop-color="#169569"/>
      <stop offset="0.714" stop-color="#178861"/>
      <stop offset="0.786" stop-color="#197c5a"/>
      <stop offset="0.857" stop-color="#1c7154"/>
      <stop offset="0.929" stop-color="#1c664e"/>
      <stop offset="1.000" stop-color="#1b5445"/>
    </linearGradient>
    <linearGradient id="snf-ninja-lettering-gradient" gradientUnits="userSpaceOnUse" x1="836.762" y1="843.648" x2="877.185" y2="1045.763">
      <stop offset="0.000" stop-color="#4cfbc5"/>
      <stop offset="0.100" stop-color="#48fac4"/>
      <stop offset="0.200" stop-color="#42fac3"/>
      <stop offset="0.300" stop-color="#3cfbc1"/>
      <stop offset="0.400" stop-color="#39fac0"/>
      <stop offset="0.500" stop-color="#34fabe"/>
      <stop offset="0.600" stop-color="#30fabd"/>
      <stop offset="0.700" stop-color="#30fabd"/>
      <stop offset="0.800" stop-color="#28faba"/>
      <stop offset="0.900" stop-color="#22fab7"/>
      <stop offset="1.000" stop-color="#20f9b6"/>
    </linearGradient>
  </defs>
  <g id="snf-ninja-icon" aria-label="Slop Ninja emblem">
    <g id="snf-silhouette-foundation">
      <path d="M667 197 C608 214 552 239 512 268 L416 510 Q412 519 418 530 C442 575 480 616 513 636 L623 698 L756 577 L810 574 L866 496 L832 402 L825 376 L788 269 C752 237 708 213 667 197 Z" fill="#010202" fill-rule="evenodd" id="snf-head-and-cloak-foundation"/>
      <path d="M721 596 H858 L919 659 L873 836 L756 808 L663 728 L703 611 Q708 597 721 596 Z" fill="#010202" fill-rule="evenodd" id="snf-document-foundation"/>
    </g>
    <g id="snf-headband-ties">
      <path d="M332.500,356.772 C294.894,328.998 273.000,312.129 273.000,310.927 C273.000,310.417 276.102,310.000 279.894,310.000 C296.100,310.000 317.567,306.964 347.500,300.440 C358.500,298.042 370.734,295.582 374.686,294.973 L381.872,293.866 L395.686,299.361 C413.752,306.548 420.999,309.302 435.500,314.496 C470.702,327.104 469.510,326.588 469.368,329.136 C469.295,330.436 467.897,334.650 466.260,338.500 L463.284,345.500 L459.392,345.303 C405.304,342.568 395.515,343.722 359.247,357.108 C342.444,363.311 341.334,363.297 332.500,356.772 Z" fill="url(#snf-upper-tie-gradient)" fill-rule="evenodd" id="snf-upper-tie"/>
      <path d="M303.000,461.501 C252.796,445.780 245.500,443.306 245.500,442.008 C245.500,441.238 248.958,439.520 253.752,437.909 C264.848,434.181 287.201,423.221 305.500,412.536 C355.302,383.458 376.821,374.347 415.265,366.066 C428.878,363.133 450.075,359.817 450.815,360.504 C450.988,360.665 445.813,363.611 439.315,367.052 C408.995,383.105 386.383,402.772 349.692,445.000 C330.055,467.601 329.632,468.013 326.139,467.960 C324.688,467.938 314.275,465.031 303.000,461.501 Z" fill="url(#snf-lower-tie-gradient)" fill-rule="evenodd" id="snf-lower-tie"/>
      <path d="M392.603,412.261 C405.174,401.076 444.164,377.021 449.750,377.004 C451.511,376.998 451.268,379.813 449.096,384.597 C447.481,388.152 446.394,389.031 440.868,391.253 C432.173,394.749 402.200,408.723 398.489,411.011 C396.833,412.032 394.133,413.353 392.489,413.945 L389.500,415.022 L392.603,412.261 Z" fill="url(#snf-tie-fold-gradient)" fill-rule="evenodd" id="snf-tie-fold"/>
    </g>
    <g id="snf-circuit-terminals">
      <path d="M868.575,544.082 C867.620,543.028 866.988,541.263 867.170,540.161 C867.351,539.059 877.962,527.560 890.750,514.607 L914.000,491.057 L914.000,461.874 L914.000,432.692 L909.966,429.238 C899.604,420.369 899.313,406.078 909.316,397.296 C925.638,382.965 950.143,401.676 941.107,421.571 C938.985,426.244 932.886,431.697 928.500,432.842 L925.500,433.625 L925.000,464.831 L924.500,496.036 L899.459,521.018 C873.723,546.694 872.061,547.935 868.575,544.082 Z M929.211,420.102 C935.927,414.102 931.570,403.000 922.500,403.000 C917.108,403.000 912.545,407.583 912.545,413.000 C912.545,418.417 917.108,423.000 922.500,423.000 C924.914,423.000 926.955,422.119 929.211,420.102 Z" fill="url(#snf-upper-right-terminal-gradient)" fill-rule="evenodd" id="snf-upper-right-terminal"/>
      <path d="M380.781,577.714 C369.386,566.597 359.599,556.233 359.031,554.685 C358.452,553.104 358.000,543.182 358.000,532.056 L358.000,512.243 L354.995,510.998 C342.090,505.653 341.634,486.309 354.261,479.867 C365.089,474.343 379.000,482.852 379.000,495.000 C379.000,499.542 375.484,506.519 371.914,509.061 L369.000,511.136 L369.000,531.039 L369.000,550.941 L388.250,570.556 C398.837,581.344 407.641,591.008 407.813,592.033 C408.298,594.927 406.172,598.004 403.715,597.964 C402.210,597.940 394.861,591.451 380.781,577.714 Z M366.193,500.250 C368.684,497.350 369.063,495.022 367.528,492.054 C364.214,485.646 355.000,488.361 355.000,495.746 C355.000,500.784 362.977,503.994 366.193,500.250 Z" fill="url(#snf-upper-left-terminal-gradient)" fill-rule="evenodd" id="snf-upper-left-terminal"/>
      <path d="M911.223,615.443 C909.035,613.911 909.000,613.520 909.000,590.894 C909.000,572.851 909.309,567.319 910.434,565.200 C911.222,563.715 923.109,551.291 936.849,537.592 C959.840,514.669 961.758,512.493 960.915,510.277 C960.412,508.953 960.000,505.903 960.000,503.500 C960.000,486.702 978.955,478.927 990.642,490.932 C1002.808,503.427 991.440,524.189 974.163,521.030 L970.183,520.302 L945.092,545.408 L920.000,570.514 L920.000,591.583 C920.000,612.313 919.963,612.686 917.686,614.826 C914.930,617.414 914.144,617.489 911.223,615.443 Z M982.545,508.545 C987.475,503.615 984.507,496.000 977.655,496.000 C973.323,496.000 970.600,498.964 970.600,503.679 C970.600,510.375 977.787,513.303 982.545,508.545 Z" fill="url(#snf-lower-right-terminal-gradient)" fill-rule="evenodd" id="snf-lower-right-terminal"/>
      <path d="M364.655,657.171 C363.276,655.647 363.000,652.937 363.000,640.914 L363.000,626.485 L337.582,601.082 L312.164,575.678 L306.287,575.589 C283.352,575.241 283.656,541.974 306.597,541.642 C318.249,541.474 326.741,554.696 321.860,565.408 C320.771,567.798 321.851,569.073 346.110,594.043 C360.075,608.416 371.806,620.924 372.180,621.838 C372.554,622.752 372.891,630.743 372.930,639.595 C372.992,653.971 372.805,655.867 371.171,657.345 C368.794,659.496 366.709,659.440 364.655,657.171 Z M311.443,562.777 C316.545,555.493 306.563,547.655 301.073,554.635 C299.933,556.084 299.000,557.823 299.000,558.500 C299.000,559.177 299.933,560.916 301.073,562.365 C303.787,565.816 309.165,566.030 311.443,562.777 Z" fill="url(#snf-lower-left-terminal-gradient)" fill-rule="evenodd" id="snf-lower-left-terminal"/>
    </g>
    <g id="snf-hood" clip-path="url(#snf-hood-clip)">
      <path d="M506.942,630.767 C503.341,627.870 497.269,622.967 493.448,619.871 C472.502,602.900 437.466,562.692 419.075,534.518 C413.096,525.358 413.103,525.548 418.194,510.500 C425.481,488.967 436.526,457.769 441.157,445.641 C443.917,438.414 447.223,429.575 448.504,426.000 C449.785,422.425 452.926,413.875 455.483,407.000 C458.041,400.125 462.076,389.100 464.449,382.500 C476.635,348.615 495.684,302.104 506.951,278.725 L512.144,267.951 L523.322,260.013 C555.991,236.813 593.983,218.167 640.500,202.504 C668.175,193.185 668.617,193.188 689.000,202.837 C727.754,221.182 757.163,239.886 787.607,265.555 C792.190,269.420 806.978,309.628 819.556,352.426 C823.100,364.485 826.000,374.795 826.000,375.337 C826.000,375.879 819.902,369.968 812.448,362.201 C793.532,342.490 756.046,309.621 754.380,311.286 C754.075,311.592 756.065,315.590 758.804,320.171 C761.543,324.752 774.009,345.600 786.508,366.500 C813.411,411.488 839.862,453.389 840.804,452.510 C841.239,452.103 837.523,429.734 834.509,414.614 C830.740,395.715 831.423,396.368 841.703,421.500 C856.999,458.894 868.481,491.885 867.404,495.346 C864.578,504.424 840.528,540.129 821.159,564.000 C816.473,569.775 812.495,574.687 812.320,574.917 C812.144,575.146 811.799,575.132 811.553,574.887 C811.308,574.641 815.952,564.778 821.874,552.970 C836.150,524.503 848.032,494.608 846.277,491.569 C842.113,484.356 816.869,459.233 801.577,447.082 C768.799,421.038 710.508,389.616 658.961,370.204 C638.721,362.582 637.534,362.344 630.446,364.495 C609.690,370.796 569.765,389.226 546.889,403.067 C499.731,431.601 459.261,469.116 442.882,499.481 L438.768,507.108 L442.971,517.804 C457.006,553.519 482.469,596.402 506.777,625.263 C510.837,630.083 514.007,634.478 513.823,635.030 C513.639,635.582 510.543,633.663 506.942,630.767 Z M532.000,380.219 C546.568,369.202 564.006,357.538 580.000,348.111 C586.875,344.059 593.510,340.117 594.745,339.352 C595.979,338.587 597.599,336.507 598.344,334.730 C614.327,296.612 646.738,232.816 661.203,211.000 C664.302,206.325 666.412,202.346 665.892,202.157 C664.248,201.563 646.813,208.779 633.445,215.586 C573.063,246.333 536.237,277.370 509.558,320.000 C503.559,329.586 486.499,361.928 484.065,368.329 C482.462,372.544 483.720,371.478 487.696,365.250 C497.529,349.847 514.901,327.459 528.132,313.140 C538.947,301.435 556.281,285.343 556.705,286.614 C556.880,287.139 554.064,292.053 550.448,297.534 C534.878,321.137 517.479,361.310 506.315,399.434 C505.950,400.680 508.373,399.153 513.124,395.142 C517.181,391.717 525.675,385.002 532.000,380.219 Z" fill="url(#snf-hood-face-gradient)" fill-rule="evenodd" id="snf-hood-face"/>
      <path d="M667 195 C609 215 552 240 511 268 L413 511 Q411 520 418 533 C447 578 483 619 517 639 C478 592 455 548 438 516 Q434 507 440 497 L448 474 L489 432 L448 470 C463 398 492 328 543 277 C582 237 626 211 667 195 Z" fill="url(#snf-hood-mint-rim-gradient)" fill-rule="evenodd" id="snf-hood-mint-rim"/>
      <path d="M667 195 C717 216 759 241 790 268 L826 376 C797 306 742 238 667 195 Z" fill="url(#snf-hood-crown-rim-gradient)" fill-rule="evenodd" id="snf-hood-crown-rim"/>
      <path d="M831 401 L868 494 C856 524 832 555 807 578 L846 493 L820 465 L844 473 Z" fill="url(#snf-hood-right-rim-gradient)" fill-rule="evenodd" id="snf-hood-right-rim"/>
    </g>
    <g id="snf-brow-and-eyes">
      <path d="M514 445 L534 430 C564 443 595 455 618 461 C651 472 690 451 748 431 L769 444 L660 488 C646 493 627 489 606 486 Z" fill="url(#snf-brow-gradient)" fill-rule="evenodd" id="snf-brow"/>
      <path d="M606 456 L623 486 C636 491 649 491 660 488 L704 457 C662 473 630 463 606 456 Z" fill="url(#snf-brow-facet-gradient)" fill-rule="evenodd" id="snf-brow-facet"/>
      <path d="M562.882,509.675 C552.973,505.981 544.868,497.793 539.034,485.585 C534.559,476.220 531.318,466.348 532.373,465.294 C533.488,464.179 606.217,500.845 605.744,502.284 C605.524,502.953 600.879,505.044 595.422,506.931 C583.932,510.904 569.454,512.126 562.882,509.675 Z" fill="#FCFCFD" fill-rule="evenodd" id="snf-left-eye"/>
      <path d="M701.000,510.518 C692.404,508.602 680.998,504.120 681.009,502.662 C681.017,501.674 752.414,465.000 754.329,465.000 C756.616,465.000 752.724,477.698 747.127,488.497 C737.573,506.929 720.808,514.933 701.000,510.518 Z" fill="#FCFCFD" fill-rule="evenodd" id="snf-right-eye"/>
    </g>
    <g id="snf-face-covering" clip-path="url(#snf-face-clip)">
      <path d="M619.482,695.354 C577.088,667.183 538.066,623.463 519.257,583.061 C507.241,557.250 492.579,510.000 496.586,510.000 C496.908,510.000 501.070,513.431 505.836,517.625 C526.499,535.809 547.217,546.652 565.078,548.631 C574.909,549.720 594.412,546.393 614.442,540.211 C637.064,533.228 642.862,532.905 659.177,537.723 C687.914,546.209 708.479,547.895 726.000,543.199 C738.723,539.790 754.740,531.493 767.856,521.517 C774.102,516.766 779.422,513.088 779.677,513.344 C780.983,514.650 767.273,558.537 761.431,571.750 L759.110,577.000 L750.555,577.000 C744.376,577.000 742.001,576.653 742.003,575.750 C742.004,575.062 744.254,569.002 747.003,562.282 C749.751,555.562 752.000,549.594 752.000,549.019 C752.000,548.400 750.468,548.650 748.250,549.631 C719.656,562.273 702.770,562.934 663.209,552.958 C654.576,550.781 645.164,549.000 642.293,549.000 L637.074,549.000 L633.120,561.367 C625.126,586.372 622.034,605.894 621.292,636.048 C620.781,656.808 622.275,683.442 624.614,695.250 C625.292,698.672 624.499,698.688 619.482,695.354 Z" fill="url(#snf-mask-charcoal-gradient)" fill-rule="evenodd" id="snf-mask-charcoal"/>
      <path d="M524 546 L545 558 C550 616 576 665 625 699 C567 666 537 613 524 546 Z" fill="url(#snf-mask-fold-gradient)" fill-rule="evenodd" id="snf-mask-left-fold"/>
      <path d="M496 509 C518 533 538 549 567 550 C593 551 620 533 638 535 C667 535 691 553 716 549 C742 546 765 528 781 510 L768 545 C728 570 699 560 637 548 C611 551 589 565 565 563 C549 563 535 557 524 549 C532 591 543 625 557 651 C523 620 508 568 496 509 Z" fill="url(#snf-mask-rim-gradient)" fill-rule="evenodd" id="snf-mask-mint-rim"/>
    </g>
    <g id="snf-scanner-reticle">
      <path d="M624.000,490.047 C611.741,489.511 611.493,489.454 611.160,487.097 C610.823,484.709 610.863,484.698 617.660,485.340 C621.422,485.695 628.212,485.989 632.750,485.993 C640.881,486.000 641.000,486.036 641.000,488.500 C641.000,490.486 640.537,490.958 638.750,490.797 C637.513,490.686 630.875,490.348 624.000,490.047 Z M600.597,482.834 C598.225,481.457 543.636,456.670 535.594,453.319 L529.689,450.857 L527.350,453.679 C524.289,457.370 517.000,471.718 517.000,474.051 C517.000,475.051 516.575,476.988 516.055,478.356 C514.842,481.546 511.000,480.926 511.000,477.540 C511.000,472.635 516.963,458.555 521.644,452.406 C522.940,450.704 524.000,448.991 524.000,448.600 C524.000,448.209 521.432,446.714 518.293,445.277 C512.957,442.834 512.735,442.597 514.874,441.643 C516.516,440.910 518.056,440.990 520.331,441.926 C526.214,444.344 528.630,444.334 531.957,441.874 C534.634,439.894 535.242,439.768 536.036,441.024 C537.396,443.175 537.207,444.707 535.500,445.362 C531.835,446.768 534.634,448.441 553.000,455.824 C569.585,462.490 610.231,479.900 610.998,480.666 C611.273,480.940 610.624,481.802 609.557,482.582 C607.259,484.263 603.252,484.376 600.597,482.834 Z M621.072,479.750 C620.586,478.512 619.271,474.529 618.150,470.899 C612.154,451.479 597.056,437.980 577.419,434.481 C573.064,433.705 569.356,433.054 569.180,433.035 C569.005,433.016 569.005,431.988 569.180,430.750 C570.286,422.967 596.511,432.345 609.000,444.988 C622.376,458.530 631.480,482.000 623.356,482.000 C622.587,482.000 621.559,480.988 621.072,479.750 Z M549.223,432.750 C549.454,420.873 549.750,418.500 551.000,418.500 C552.250,418.500 552.546,420.873 552.777,432.750 C553.046,446.550 552.990,447.000 551.000,447.000 C549.010,447.000 548.954,446.550 549.223,432.750 Z" fill="url(#snf-scanner-mint-gradient)" fill-rule="evenodd" id="snf-scanner-upper-arc-and-markers"/>
      <path d="M494.647,488.524 C493.019,484.279 494.382,483.939 511.866,484.226 L528.500,484.500 L528.500,487.000 L528.500,489.500 L511.866,489.774 C497.718,490.006 495.145,489.820 494.647,488.524 Z" fill="url(#snf-scanner-mint-gradient)" fill-rule="evenodd" id="snf-scanner-left-tick"/>
      <path d="M529.822,532.250 C521.413,525.554 514.220,514.587 510.488,502.772 C507.640,493.757 507.960,492.000 512.448,492.000 C515.534,492.000 515.735,492.240 516.860,497.266 C518.844,506.132 524.479,515.833 532.170,523.626 C538.465,530.004 539.084,530.975 538.066,532.876 C536.532,535.743 533.963,535.548 529.822,532.250 Z" fill="url(#snf-scanner-mint-gradient)" fill-rule="evenodd" id="snf-scanner-lower-left-arc"/>
      <path d="M567.040,545.548 C566.377,544.749 565.988,543.303 566.174,542.333 C566.519,540.543 567.806,540.081 578.266,537.998 C596.364,534.393 612.142,519.258 617.583,500.285 C619.494,493.619 620.553,492.000 623.000,492.000 C626.575,492.000 627.215,494.380 625.464,501.163 C621.183,517.743 609.777,532.251 594.968,539.956 C583.661,545.838 569.615,548.651 567.040,545.548 Z" fill="url(#snf-scanner-mint-gradient)" fill-rule="evenodd" id="snf-scanner-lower-right-arc"/>
      <path d="M567.050,531.560 C564.851,528.910 566.154,524.540 569.250,524.184 C570.895,523.994 572.000,524.348 572.000,525.064 C572.000,528.536 584.854,523.213 593.717,516.071 C597.753,512.819 600.178,511.492 601.073,512.045 C606.474,515.383 585.608,530.000 575.441,530.000 C574.233,530.000 572.685,530.675 572.000,531.500 C570.431,533.391 568.588,533.414 567.050,531.560 Z" fill="url(#snf-scanner-mint-gradient)" fill-rule="evenodd" id="snf-scanner-inner-arc"/>
    </g>
    <g id="snf-refined-document">
      <path d="M874.241,842.750 C874.895,839.643 882.843,799.827 897.521,726.130 C906.808,679.501 909.688,663.286 908.936,661.880 C907.990,660.112 906.344,660.000 881.388,660.000 L854.846,660.000 L851.923,657.077 C848.340,653.494 848.339,653.907 852.009,630.055 C853.654,619.359 855.000,609.859 855.000,608.943 C855.000,606.475 725.050,605.367 720.828,607.799 C717.237,609.869 717.048,610.296 708.615,635.500 C694.974,676.269 674.765,734.493 673.946,735.383 C673.336,736.046 663.527,731.513 661.197,729.491 C660.837,729.178 675.787,685.040 689.984,644.500 C695.570,628.550 701.100,612.680 702.272,609.233 C704.874,601.584 709.023,596.348 714.429,593.893 C718.266,592.150 722.614,592.043 790.168,592.022 C829.586,592.010 862.566,592.280 863.457,592.622 C865.401,593.368 922.228,653.690 923.861,656.740 C926.306,661.310 926.156,662.178 905.101,764.688 C897.178,803.259 898.556,799.014 885.438,825.293 C876.450,843.299 872.988,848.697 874.241,842.750 Z" fill="url(#snf-document-border-gradient)" fill-rule="evenodd" id="snf-document-border"/>
      <path d="M850 710 H935 V850 H850 Z" fill="url(#snf-document-tail-shading)" fill-rule="evenodd" clip-path="url(#snf-document-border-clip)" id="snf-document-lower-edge"/>
      <rect id="snf-text-line-1" x="729" y="649" width="83" height="12" rx="6" fill="url(#snf-text-line-1-gradient)"/>
      <rect id="snf-text-line-2" x="721" y="680" width="127" height="12" rx="6" fill="url(#snf-text-line-2-gradient)"/>
      <rect id="snf-text-line-3" x="713" y="710" width="110" height="12" rx="6" fill="url(#snf-text-line-3-gradient)"/>
      <rect id="snf-text-line-4" x="706" y="741" width="97" height="12" rx="6" fill="url(#snf-text-line-4-gradient)"/>
      <path d="M844.187,772.913 C843.700,771.586 842.504,767.509 841.530,763.853 C837.931,750.343 833.464,746.328 817.706,742.440 C813.970,741.517 811.059,740.324 811.238,739.787 C811.417,739.250 815.599,737.510 820.532,735.920 C835.593,731.065 837.826,728.786 841.517,714.500 C844.885,701.462 845.707,701.353 848.953,713.514 C852.953,728.500 857.417,732.916 872.250,736.558 C875.967,737.471 879.000,738.761 879.000,739.429 C879.000,740.097 875.062,741.836 870.250,743.293 C855.450,747.774 853.544,749.771 849.050,765.500 C846.395,774.791 845.423,776.273 844.187,772.913 Z" fill="url(#snf-refinement-spark-gradient)" fill-rule="evenodd" id="snf-refinement-spark"/>
    </g>
    <g id="snf-scarf-and-collar">
      <path d="M533.000,821.096 C481.482,802.981 439.141,780.167 402.000,750.514 C375.576,729.417 344.688,695.490 348.130,691.343 C351.544,687.230 393.016,659.616 394.120,660.720 C394.562,661.162 394.049,664.893 392.980,669.012 C389.199,683.581 389.255,687.757 393.345,696.133 C403.549,717.028 435.169,750.693 467.551,775.135 C489.022,791.342 510.558,804.785 536.500,818.175 C545.850,823.001 552.600,826.938 551.500,826.924 C550.400,826.910 542.075,824.287 533.000,821.096 Z" fill="url(#snf-scarf-rear-gradient)" fill-rule="evenodd" id="snf-scarf-rear"/>
      <g id="snf-collar" clip-path="url(#snf-collar-clip)">
        <path d="M638.500,839.997 C637.400,839.520 631.100,837.005 624.500,834.408 C539.057,800.787 445.243,738.095 408.751,690.231 L401.684,680.962 L402.873,671.284 C404.229,660.252 412.344,625.977 417.560,609.251 C420.122,601.036 421.686,597.596 423.359,596.500 C426.323,594.558 441.547,590.000 445.069,590.000 C448.773,590.000 449.583,592.602 446.468,594.498 C445.111,595.324 442.881,596.681 441.514,597.514 C440.147,598.347 438.295,600.147 437.399,601.514 C435.888,603.821 435.894,604.199 437.492,606.750 C440.912,612.209 455.988,624.051 480.134,640.244 C509.478,659.923 531.591,673.042 604.500,714.029 C611.650,718.048 622.675,724.338 629.000,728.007 C635.325,731.675 647.250,738.437 655.500,743.034 C696.126,765.668 729.901,788.137 756.000,809.891 C768.989,820.717 783.264,834.069 782.580,834.753 C782.331,835.003 777.260,832.300 771.313,828.747 C746.504,813.926 688.452,782.994 655.000,766.772 C648.675,763.705 633.825,756.490 622.000,750.738 C602.331,741.170 577.765,729.667 526.500,706.021 C494.345,691.189 489.586,689.081 489.178,689.489 C488.961,689.705 490.489,692.722 492.573,696.191 C523.211,747.209 564.867,789.374 621.500,826.694 C630.850,832.855 639.400,838.575 640.500,839.404 C642.691,841.055 641.650,841.364 638.500,839.997 Z" fill="url(#snf-collar-charcoal-gradient)" fill-rule="evenodd" id="snf-collar-charcoal"/>
        <path d="M451 587 L416 589 L399 680 C433 731 482 771 537 792 C473 737 438 676 439 637 L579 710 L442 613 C428 605 436 598 451 593 Z" fill="url(#snf-collar-mint-gradient)" fill-rule="evenodd" id="snf-collar-mint-edge"/>
      </g>
    </g>
  </g>
  <g id="snf-wordmark" aria-label="Slop Ninja">
    <g id="snf-slop-lettering" fill="#FCFCFD">
      <path d="M222 876 H309 Q312 876 311 881 C308 887 296 900 288 905 H222 C216 905 213 909 213 915 C213 921 216 924 222 924 H276 C301 924 318 939 318 959 C318 982 302 998 277 998 H171 L193 969 H276 C283 969 286 966 286 960 C286 954 283 950 276 950 H220 C195 950 180 940 180 916 C180 894 198 876 222 876 Z" fill="#FCFCFD" fill-rule="evenodd" id="snf-letter-S"/>
      <path d="M328 875 H359 V998 H341 C333 998 328 990 328 980 Z" fill="#FCFCFD" fill-rule="evenodd" id="snf-letter-l"/>
      <path d="M403 909 H455 C475 909 489 924 489 943 V964 C489 983 475 998 455 998 H403 C383 998 369 983 369 964 V943 C369 924 383 909 403 909 Z M409 936 H448 C454 936 458 940 458 946 V961 C458 967 454 971 448 971 H409 C403 971 399 967 399 961 V946 C399 940 403 936 409 936 Z" fill="#FCFCFD" fill-rule="evenodd" id="snf-letter-o"/>
      <path d="M500 909 H571 C596 909 612 925 612 949 V958 C612 983 596 998 571 998 H530 V1031 H500 Z M530 936 H566 C576 936 582 941 582 950 V958 C582 966 577 972 568 972 H546 L530 997 Z" fill="#FCFCFD" fill-rule="evenodd" id="snf-letter-p"/>
    </g>
    <g id="snf-ninja-lettering">
      <path d="M642 877 H679 Q684 877 687 882 L749 955 V877 H780 V977 C780 993 774 1000 760 1000 H754 C744 1000 739 996 731 986 L673 913 V983 C673 994 669 1000 661 1000 H642 Z" fill="url(#snf-ninja-lettering-gradient)" fill-rule="evenodd" id="snf-letter-N"/>
      <path d="M831 909 H890 C912 909 926 923 926 946 V1000 H911 C901 1000 896 998 896 988 V948 C896 939 891 935 883 935 H872 C864 935 860 940 860 949 V1000 H831 Z" fill="url(#snf-ninja-lettering-gradient)" fill-rule="evenodd" id="snf-letter-n"/>
      <path d="M936 910 H965 V999 C965 1026 948 1040 923 1040 H894 L912 1015 H925 C933 1015 936 1009 936 1000 Z" fill="url(#snf-ninja-lettering-gradient)" fill-rule="evenodd" id="snf-letter-j"/>
      <path d="M979 909 H1044 C1068 909 1082 923 1082 945 V1001 H1053 L1052 994 C1043 1000 1036 1001 1024 1001 H1006 C985 1001 974 991 974 973 C974 956 987 945 1008 945 H1052 C1052 940 1049 934 1042 934 H996 Q993 934 991 931 Z M1010 965 H1052 V978 H1010 C1005 978 1002 975 1002 972 C1002 968 1006 965 1010 965 Z" fill="url(#snf-ninja-lettering-gradient)" fill-rule="evenodd" id="snf-letter-a"/>
      <rect id="snf-letter-i-stem" x="792" y="910" width="29" height="90" fill="url(#snf-ninja-lettering-gradient)"/>
      <rect id="snf-letter-i-dot" x="792" y="878" width="29" height="24" fill="url(#snf-ninja-lettering-gradient)"/>
      <rect id="snf-letter-j-dot" x="936" y="878" width="29" height="24" fill="url(#snf-ninja-lettering-gradient)"/>
    </g>
  </g>
</svg>
